<?xml version="1.0" encoding="iso-8859-1"?>
<!-- Generator: Adobe Illustrator 19.0.0, SVG Export Plug-In . SVG Version: 6.00 Build 0)  -->
<svg version="1.1" id="Capa_1" xmlns="http://www.w3.org/2000/svg" xmlns:xlink="http://www.w3.org/1999/xlink" x="0px" y="0px"
	 viewBox="0 0 415.462 415.462" style="enable-background:new 0 0 415.462 415.462;" xml:space="preserve">
<g>
	<path style="fill:#414042;" d="M83.275,392.836c-19.094,0.035-37.414-7.543-50.904-21.056l-11.312-11.312
		c-28.078-28.134-28.078-73.69,0-101.824l113.136-113.136c3.178-3.069,8.243-2.981,11.312,0.197c2.994,3.1,2.994,8.015,0,11.115
		L32.371,269.956c-21.832,21.886-21.832,57.314,0,79.2l11.312,11.312c21.89,21.824,57.31,21.824,79.2,0l113.136-113.136
		c21.824-21.89,21.824-57.31,0-79.2l-11.312-11.312c-3.069-3.178-2.982-8.243,0.196-11.312c3.1-2.994,8.015-2.994,11.116,0
		l11.312,11.312c28.065,28.14,28.065,73.684,0,101.824L134.195,371.78C120.699,385.295,102.374,392.873,83.275,392.836
		L83.275,392.836z"/>
	<path style="fill:#414042;" d="M275.611,272.3c-4.418-0.001-7.999-3.583-7.998-8.002c0-2.121,0.843-4.154,2.342-5.654
		l113.136-113.136c21.832-21.886,21.832-57.314,0-79.2l-11.312-11.312c-21.89-21.824-57.31-21.824-79.2,0L179.443,168.132
		c-21.824,21.89-21.824,57.31,0,79.2l11.312,11.312c3.07,3.178,2.982,8.242-0.196,11.312c-3.1,2.994-8.015,2.994-11.116,0
		l-11.312-11.312c-28.065-28.14-28.065-73.684,0-101.824L281.267,43.684c28.134-28.078,73.69-28.078,101.824,0l11.312,11.312
		c28.078,28.134,28.078,73.69,0,101.824L281.267,269.956C279.77,271.462,277.734,272.306,275.611,272.3L275.611,272.3z"/>
</g>
<g>
</g>
<g>
</g>
<g>
</g>
<g>
</g>
<g>
</g>
<g>
</g>
<g>
</g>
<g>
</g>
<g>
</g>
<g>
</g>
<g>
</g>
<g>
</g>
<g>
</g>
<g>
</g>
<g>
</g>
</svg>
