<svg xmlns="http://www.w3.org/2000/svg" width="36" height="36" viewBox="0 0 36 36">
    <path fill="#FFF" fill-rule="nonzero" d="M2.577 17.775l4.85 2.014A28.345 28.345 0 0 0 6.375 23.2c-.085.35.017.719.27.975l5.178 5.184c.255.254.624.356.974.27a28.345 28.345 0 0 0 3.412-1.057l2.013 4.851a.784.784 0 0 0 1.278.255l2.692-2.692a5.248 5.248 0 0 0 1.526-3.985l-.132-2.549c5.631-4.277 10.846-11.524 12.405-23.449a.873.873 0 0 0-.993-.993C23.072 1.562 15.825 6.758 11.529 12.4L9 12.283a5.248 5.248 0 0 0-3.982 1.522l-2.695 2.7a.784.784 0 0 0 .255 1.27zm19.917-8.88a3.25 3.25 0 1 1 4.582 4.61 3.25 3.25 0 0 1-4.582-4.61zM.001 35.064c.278-5.106 2.756-7.917 4.177-9.125a.435.435 0 0 1 .697.405 7.918 7.918 0 0 0-.068 2.328 2.868 2.868 0 0 0 2.5 2.5c.781.101 1.572.085 2.348-.048a.435.435 0 0 1 .405.712C8.852 33.24 6.04 35.717.935 36A.885.885 0 0 1 0 35.065z"/>
</svg>
